<?xml version="1.0" encoding="UTF-8" standalone="no"?>
<svg
   width="159.57841"
   height="31.486052"
   viewBox="0 0 159.57841 31.486052"
   fill="none"
   version="1.1"
   id="svg6"
   sodipodi:docname="ic_instagram.svg"
   inkscape:version="1.1.1 (3bf5ae0d25, 2021-09-20)"
   xmlns:inkscape="http://www.inkscape.org/namespaces/inkscape"
   xmlns:sodipodi="http://sodipodi.sourceforge.net/DTD/sodipodi-0.dtd"
   xmlns="http://www.w3.org/2000/svg"
   xmlns:svg="http://www.w3.org/2000/svg">
  <defs
     id="defs10" />
  <sodipodi:namedview
     id="namedview8"
     pagecolor="#ffffff"
     bordercolor="#666666"
     borderopacity="1.0"
     inkscape:pageshadow="2"
     inkscape:pageopacity="0.0"
     inkscape:pagecheckerboard="0"
     showgrid="false"
     fit-margin-top="0"
     fit-margin-left="0"
     fit-margin-right="0"
     fit-margin-bottom="0"
     inkscape:zoom="9.7738095"
     inkscape:cx="42"
     inkscape:cy="15.858709"
     inkscape:window-width="1920"
     inkscape:window-height="1040"
     inkscape:window-x="-12"
     inkscape:window-y="-12"
     inkscape:window-maximized="1"
     inkscape:current-layer="svg6" />
  <path
     id="text1226"
     style="font-size:34.5128px;line-height:1.25;font-family:Impact;-inkscape-font-specification:'Impact, Normal';font-variant-ligatures:none;fill:#000000;stroke-width:0.999996"
     d="M 85.708984 -0.1015625 L 85.708984 28.140625 L 91.863281 28.140625 L 92.285156 26.396484 C 92.838683 27.117494 93.447314 27.657073 94.109375 28.017578 C 94.782289 28.378083 95.504796 28.558594 96.275391 28.558594 C 97.349885 28.558594 98.277145 28.257063 99.058594 27.652344 C 99.840042 27.035997 100.33285 26.313954 100.53906 25.488281 C 100.75613 24.650979 100.86523 23.38341 100.86523 21.685547 L 100.86523 11.253906 C 100.86523 9.5444137 100.82793 8.4276108 100.75195 7.9042969 C 100.68685 7.380983 100.48013 6.8473535 100.13281 6.3007812 C 99.785508 5.7542089 99.281204 5.329703 98.619141 5.0273438 C 97.957081 4.7249846 97.176229 4.5742188 96.275391 4.5742188 C 95.493943 4.5742189 94.766664 4.7428314 94.09375 5.0800781 C 93.431689 5.4056957 92.827829 5.9055847 92.285156 6.5800781 L 92.285156 -0.1015625 L 85.708984 -0.1015625 z M 118.98438 1.9042969 L 118.98438 5.5507812 L 117.56836 5.5507812 L 117.56836 9.2128906 L 118.98438 9.2128906 L 118.98438 20.970703 C 118.98438 23.273284 119.04468 24.73921 119.16406 25.367188 C 119.28345 25.983535 119.58777 26.535012 120.07617 27.023438 C 120.56458 27.500235 121.12918 27.807716 121.76953 27.947266 C 122.40989 28.075187 123.47879 28.140625 124.97656 28.140625 L 127.63086 28.140625 L 127.63086 24.40625 C 126.55637 24.40625 125.94297 24.318969 125.79102 24.144531 C 125.64992 23.970093 125.57813 23.121081 125.57812 21.597656 L 125.57812 9.2128906 L 127.35352 9.2128906 L 127.35352 5.5507812 L 125.57812 5.5507812 L 125.57812 1.9042969 L 118.98438 1.9042969 z M 10.820312 4.5742188 C 9.919476 4.5742188 9.1156312 4.7944186 8.4101562 5.2363281 C 7.7046815 5.6666084 7.0960501 6.3172633 6.5859375 7.1894531 L 6.7011719 4.9921875 L 0.20507812 4.9921875 L 0.20507812 28.140625 L 6.5859375 28.140625 L 6.5859375 12.091797 C 6.5859375 10.975394 6.5974336 10.249356 6.6191406 9.9121094 C 6.6408476 9.563233 6.7547218 9.2716465 6.9609375 9.0390625 C 7.1671532 8.7948494 7.4178941 8.671875 7.7109375 8.671875 C 8.1776362 8.671875 8.4589595 8.8999769 8.5566406 9.3535156 C 8.6651752 9.8070547 8.71875 11.167854 8.71875 13.435547 L 8.71875 28.140625 L 15.101562 28.140625 L 15.101562 13.050781 C 15.101562 11.062188 15.166632 9.8362618 15.296875 9.3710938 C 15.43797 8.9059259 15.742286 8.671875 16.208984 8.671875 C 16.66483 8.671875 16.952877 8.9118748 17.072266 9.3886719 C 17.202507 9.8538397 17.267578 11.073817 17.267578 13.050781 L 17.267578 28.140625 L 23.648438 28.140625 L 23.648438 11.691406 C 23.648438 9.7958465 23.546059 8.4290991 23.339844 7.5917969 C 23.133628 6.7428655 22.65991 6.0267724 21.921875 5.4453125 C 21.194693 4.8638526 20.272203 4.5742187 19.154297 4.5742188 C 18.307727 4.5742188 17.538371 4.7944186 16.84375 5.2363281 C 16.149128 5.6666084 15.524229 6.3172633 14.970703 7.1894531 C 13.961331 5.4450735 12.578573 4.5742187 10.820312 4.5742188 z M 32.994141 4.5742188 C 31.485511 4.5742188 30.149601 4.8876483 28.988281 5.515625 C 27.826961 6.1319725 26.990581 7.0266229 26.480469 8.2011719 C 25.970356 9.3640916 25.716797 10.956989 25.716797 12.980469 L 25.716797 19.732422 C 25.716797 21.453544 25.830671 22.76675 26.058594 23.673828 C 26.286516 24.569276 26.69321 25.394493 27.279297 26.150391 C 27.876237 26.89466 28.705892 27.483782 29.769531 27.914062 C 30.83317 28.344342 32.059976 28.558594 33.449219 28.558594 C 34.881875 28.558594 36.069421 28.344342 37.013672 27.914062 C 37.968776 27.472152 38.756353 26.813596 39.375 25.941406 C 39.993647 25.069216 40.384073 24.249949 40.546875 23.482422 C 40.72053 22.714895 40.808594 21.615939 40.808594 20.185547 L 40.808594 18.476562 L 34.572266 18.476562 L 34.572266 21.529297 C 34.572265 22.680588 34.486156 23.460165 34.3125 23.867188 C 34.149698 24.26258 33.817618 24.458984 33.318359 24.458984 C 32.916781 24.458984 32.646954 24.308218 32.505859 24.005859 C 32.364764 23.7035 32.292969 23.02905 32.292969 21.982422 L 32.292969 16.976562 L 40.808594 16.976562 L 40.808594 13.90625 C 40.808594 11.661816 40.564577 9.9221487 40.076172 8.6894531 C 39.59862 7.445129 38.757468 6.4512999 37.552734 5.7070312 C 36.358854 4.9511334 34.839231 4.5742187 32.994141 4.5742188 z M 53.572266 4.5742188 C 52.671427 4.5742188 51.867584 4.7944186 51.162109 5.2363281 C 50.456634 5.6666084 49.848004 6.3172633 49.337891 7.1894531 L 49.453125 4.9921875 L 42.957031 4.9921875 L 42.957031 28.140625 L 49.337891 28.140625 L 49.337891 12.091797 C 49.337891 10.975394 49.349394 10.249356 49.371094 9.9121094 C 49.392804 9.563233 49.506677 9.2716465 49.712891 9.0390625 C 49.919107 8.7948494 50.169848 8.671875 50.462891 8.671875 C 50.92959 8.671875 51.210912 8.8999769 51.308594 9.3535156 C 51.417128 9.8070547 51.470703 11.167854 51.470703 13.435547 L 51.470703 28.140625 L 57.853516 28.140625 L 57.853516 13.050781 C 57.853516 11.062188 57.918586 9.8362618 58.048828 9.3710938 C 58.189923 8.9059259 58.494239 8.671875 58.960938 8.671875 C 59.416784 8.671875 59.702876 8.9118748 59.822266 9.3886719 C 59.952506 9.8538397 60.017578 11.073817 60.017578 13.050781 L 60.017578 28.140625 L 66.400391 28.140625 L 66.400391 11.691406 C 66.400391 9.7958465 66.298012 8.4290991 66.091797 7.5917969 C 65.885585 6.7428655 65.411863 6.0267724 64.673828 5.4453125 C 63.946646 4.8638526 63.024156 4.5742187 61.90625 4.5742188 C 61.05968 4.5742188 60.290324 4.7944186 59.595703 5.2363281 C 58.901082 5.6666084 58.276183 6.3172633 57.722656 7.1894531 C 56.713284 5.4450735 55.330525 4.5742187 53.572266 4.5742188 z M 75.746094 4.5742188 C 74.237463 4.5742188 72.901554 4.8876483 71.740234 5.515625 C 70.578914 6.1319725 69.742534 7.0266229 69.232422 8.2011719 C 68.722309 9.3640916 68.46875 10.956989 68.46875 12.980469 L 68.46875 19.732422 C 68.46875 21.453544 68.582624 22.76675 68.810547 23.673828 C 69.038469 24.569276 69.445163 25.394493 70.03125 26.150391 C 70.62819 26.89466 71.457845 27.483782 72.521484 27.914062 C 73.585123 28.344342 74.811929 28.558594 76.201172 28.558594 C 77.633828 28.558594 78.821374 28.344342 79.765625 27.914062 C 80.720729 27.472152 81.508306 26.813596 82.126953 25.941406 C 82.7456 25.069216 83.136026 24.249949 83.298828 23.482422 C 83.472483 22.714895 83.560547 21.615939 83.560547 20.185547 L 83.560547 18.476562 L 77.324219 18.476562 L 77.324219 21.529297 C 77.324219 22.680588 77.238109 23.460165 77.064453 23.867188 C 76.901651 24.26258 76.569571 24.458984 76.070312 24.458984 C 75.668734 24.458984 75.396954 24.308218 75.255859 24.005859 C 75.114764 23.7035 75.044922 23.02905 75.044922 21.982422 L 75.044922 16.976562 L 83.560547 16.976562 L 83.560547 13.90625 C 83.560547 11.661816 83.314577 9.9221487 82.826172 8.6894531 C 82.34862 7.445129 81.507468 6.4512999 80.302734 5.7070312 C 79.108854 4.9511334 77.591182 4.5742187 75.746094 4.5742188 z M 135.88477 4.5742188 C 134.37614 4.5742188 133.04023 4.8876483 131.87891 5.515625 C 130.71759 6.1319725 129.88316 7.0266229 129.37305 8.2011719 C 128.86294 9.3640916 128.60742 10.956989 128.60742 12.980469 L 128.60742 19.732422 C 128.60742 21.453544 128.7213 22.76675 128.94922 23.673828 C 129.17714 24.569276 129.58384 25.394493 130.16992 26.150391 C 130.76686 26.89466 131.59652 27.483782 132.66016 27.914062 C 133.7238 28.344342 134.95059 28.558594 136.33984 28.558594 C 137.77249 28.558594 138.962 28.344342 139.90625 27.914062 C 140.86136 27.472152 141.64697 26.813596 142.26562 25.941406 C 142.88426 25.069216 143.2747 24.249949 143.4375 23.482422 C 143.61116 22.714895 143.69922 21.615939 143.69922 20.185547 L 143.69922 18.476562 L 137.46289 18.476562 L 137.46289 21.529297 C 137.46289 22.680588 137.37679 23.460165 137.20312 23.867188 C 137.04031 24.26258 136.70824 24.458984 136.20898 24.458984 C 135.8074 24.458984 135.53757 24.308218 135.39648 24.005859 C 135.25538 23.7035 135.18359 23.02905 135.18359 21.982422 L 135.18359 16.976562 L 143.69922 16.976562 L 143.69922 13.90625 C 143.69922 11.661816 143.4552 9.9221487 142.9668 8.6894531 C 142.48925 7.445129 141.6481 6.4512998 140.44336 5.7070312 C 139.24948 4.9511334 137.72986 4.5742188 135.88477 4.5742188 z M 152.16406 4.5742188 C 150.72055 4.5742188 149.45167 4.8122654 148.35547 5.2890625 C 147.27012 5.7658596 146.49882 6.4462591 146.04297 7.3300781 C 145.58713 8.2022679 145.35938 9.563067 145.35938 11.412109 C 145.35938 12.714579 145.57086 13.841328 145.99414 14.794922 C 146.41743 15.736887 147.59542 16.790204 149.52734 17.953125 C 151.82827 19.325369 153.10389 20.150586 153.35352 20.429688 C 153.59229 20.708789 153.71094 21.401085 153.71094 22.505859 C 153.71094 23.308274 153.61813 23.837909 153.43359 24.09375 C 153.24908 24.337964 152.92373 24.458984 152.45703 24.458984 C 152.02289 24.458984 151.73008 24.272525 151.57812 23.900391 C 151.43703 23.528257 151.36719 22.720887 151.36719 21.476562 L 151.36719 20.011719 L 145.53906 20.011719 L 145.53906 21.126953 C 145.53906 23.057399 145.76009 24.499529 146.20508 25.453125 C 146.65007 26.406719 147.46541 27.162501 148.64844 27.720703 C 149.84232 28.278904 151.27388 28.558594 152.94531 28.558594 C 154.45395 28.558594 155.74105 28.302701 156.80469 27.791016 C 157.87918 27.267702 158.64377 26.529767 159.09961 25.576172 C 159.55546 24.610949 159.7832 23.186664 159.7832 21.302734 C 159.7832 19.6165 159.48561 18.331085 158.88867 17.447266 C 158.29173 16.563447 157.03715 15.621205 155.12695 14.621094 C 153.69429 13.865196 152.746 13.289923 152.2793 12.894531 C 151.82345 12.499138 151.54495 12.138118 151.44727 11.8125 C 151.36047 11.475255 151.31836 10.951569 151.31836 10.242188 C 151.31836 9.718873 151.40926 9.3300612 151.59375 9.0742188 C 151.77826 8.8067474 152.05677 8.671875 152.42578 8.671875 C 152.88163 8.671875 153.16294 8.8186451 153.27148 9.109375 C 153.39086 9.3884757 153.45117 10.062928 153.45117 11.132812 L 153.45117 12.388672 L 159.2793 12.388672 L 159.2793 11.044922 C 159.2793 9.8820028 159.219 9.027041 159.09961 8.4804688 C 158.99108 7.9338965 158.66572 7.3407777 158.12305 6.7011719 C 157.59123 6.061566 156.81992 5.5497791 155.81055 5.1660156 C 154.81203 4.7706229 153.59672 4.5742187 152.16406 4.5742188 z M 101.66406 4.9921875 L 105.26172 24.355469 C 105.53306 25.785861 105.66797 26.59323 105.66797 26.779297 C 105.66797 27.163061 105.52156 27.413005 105.22852 27.529297 C 104.93547 27.63396 104.27804 27.685547 103.25781 27.685547 L 103.25781 31.384766 L 107.24805 31.384766 C 109.07143 31.384766 110.39389 31.234 111.21875 30.931641 C 112.05447 30.640911 112.70713 30.180711 113.17383 29.552734 C 113.64053 28.924757 113.97066 28.129285 114.16602 27.164062 C 114.37223 26.198839 114.62297 24.389738 114.91602 21.738281 L 116.80469 4.9921875 L 110.82812 4.9921875 L 109.78711 20.603516 L 107.63867 4.9921875 L 101.66406 4.9921875 z M 33.302734 8.671875 C 33.671752 8.671875 33.915768 8.8464366 34.035156 9.1953125 C 34.154544 9.5441884 34.214844 10.317816 34.214844 11.515625 L 34.214844 13.208984 L 32.292969 13.208984 L 32.292969 11.515625 C 32.292969 10.213153 32.348499 9.4176831 32.457031 9.1269531 C 32.565566 8.824594 32.846889 8.671875 33.302734 8.671875 z M 76.054688 8.671875 C 76.423704 8.671875 76.667721 8.8464366 76.787109 9.1953125 C 76.906497 9.5441884 76.966797 10.317816 76.966797 11.515625 L 76.966797 13.208984 L 75.044922 13.208984 L 75.044922 11.515625 C 75.044922 10.213153 75.098502 9.4176831 75.207031 9.1269531 C 75.315566 8.824594 75.598843 8.671875 76.054688 8.671875 z M 93.246094 8.671875 C 93.658525 8.671875 93.935077 8.8583345 94.076172 9.2304688 C 94.217267 9.5909739 94.289064 10.370552 94.289062 11.568359 L 94.289062 21.320312 C 94.289062 22.692557 94.223992 23.557464 94.09375 23.917969 C 93.974362 24.278474 93.707353 24.458984 93.294922 24.458984 C 92.893344 24.458984 92.621564 24.284423 92.480469 23.935547 C 92.350227 23.586671 92.285156 22.791198 92.285156 21.546875 L 92.285156 11.568359 C 92.285156 10.277518 92.345456 9.4741447 92.464844 9.1601562 C 92.584232 8.8345386 92.844516 8.671875 93.246094 8.671875 z M 136.19336 8.671875 C 136.56238 8.671875 136.8064 8.8464366 136.92578 9.1953125 C 137.04517 9.5441884 137.10547 10.317816 137.10547 11.515625 L 137.10547 13.208984 L 135.18359 13.208984 L 135.18359 11.515625 C 135.18359 10.213153 135.2391 9.4176831 135.34766 9.1269531 C 135.45619 8.824594 135.73752 8.671875 136.19336 8.671875 z " />
</svg>
